<mxfile host="app.diagrams.net" modified="2021-03-28T06:37:34.725Z" agent="5.0 (Macintosh; Intel Mac OS X 11_2_3) AppleWebKit/537.36 (KHTML, like Gecko) Chrome/89.0.4389.90 Safari/537.36" etag="p912RSGtCju2ihdadc3N" version="14.5.3" type="github">
  <diagram id="R2lEEEUBdFMjLlhIrx00" name="Page-1">
    <mxGraphModel dx="669" dy="536" grid="1" gridSize="10" guides="1" tooltips="1" connect="1" arrows="1" fold="1" page="1" pageScale="1" pageWidth="850" pageHeight="1100" math="0" shadow="0" extFonts="Permanent Marker^https://fonts.googleapis.com/css?family=Permanent+Marker">
      <root>
        <mxCell id="0" />
        <mxCell id="1" parent="0" />
        <mxCell id="C-vyLk0tnHw3VtMMgP7b-23" value="time" style="shape=table;startSize=30;container=1;collapsible=1;childLayout=tableLayout;fixedRows=1;rowLines=0;fontStyle=1;align=center;resizeLast=1;" parent="1" vertex="1">
          <mxGeometry x="50" y="50" width="250" height="250" as="geometry" />
        </mxCell>
        <mxCell id="C-vyLk0tnHw3VtMMgP7b-24" value="" style="shape=partialRectangle;collapsible=0;dropTarget=0;pointerEvents=0;fillColor=none;points=[[0,0.5],[1,0.5]];portConstraint=eastwest;top=0;left=0;right=0;bottom=1;" parent="C-vyLk0tnHw3VtMMgP7b-23" vertex="1">
          <mxGeometry y="30" width="250" height="30" as="geometry" />
        </mxCell>
        <mxCell id="C-vyLk0tnHw3VtMMgP7b-25" value="PK" style="shape=partialRectangle;overflow=hidden;connectable=0;fillColor=none;top=0;left=0;bottom=0;right=0;fontStyle=1;" parent="C-vyLk0tnHw3VtMMgP7b-24" vertex="1">
          <mxGeometry width="30" height="30" as="geometry" />
        </mxCell>
        <mxCell id="C-vyLk0tnHw3VtMMgP7b-26" value="start_time int" style="shape=partialRectangle;overflow=hidden;connectable=0;fillColor=none;top=0;left=0;bottom=0;right=0;align=left;spacingLeft=6;fontStyle=5;" parent="C-vyLk0tnHw3VtMMgP7b-24" vertex="1">
          <mxGeometry x="30" width="220" height="30" as="geometry" />
        </mxCell>
        <mxCell id="C-vyLk0tnHw3VtMMgP7b-27" value="" style="shape=partialRectangle;collapsible=0;dropTarget=0;pointerEvents=0;fillColor=none;points=[[0,0.5],[1,0.5]];portConstraint=eastwest;top=0;left=0;right=0;bottom=0;" parent="C-vyLk0tnHw3VtMMgP7b-23" vertex="1">
          <mxGeometry y="60" width="250" height="30" as="geometry" />
        </mxCell>
        <mxCell id="C-vyLk0tnHw3VtMMgP7b-28" value="" style="shape=partialRectangle;overflow=hidden;connectable=0;fillColor=none;top=0;left=0;bottom=0;right=0;" parent="C-vyLk0tnHw3VtMMgP7b-27" vertex="1">
          <mxGeometry width="30" height="30" as="geometry" />
        </mxCell>
        <mxCell id="C-vyLk0tnHw3VtMMgP7b-29" value="hour int" style="shape=partialRectangle;overflow=hidden;connectable=0;fillColor=none;top=0;left=0;bottom=0;right=0;align=left;spacingLeft=6;" parent="C-vyLk0tnHw3VtMMgP7b-27" vertex="1">
          <mxGeometry x="30" width="220" height="30" as="geometry" />
        </mxCell>
        <mxCell id="QFdVW7fJNlGAiNWQG3LB-25" style="shape=partialRectangle;collapsible=0;dropTarget=0;pointerEvents=0;fillColor=none;points=[[0,0.5],[1,0.5]];portConstraint=eastwest;top=0;left=0;right=0;bottom=0;" vertex="1" parent="C-vyLk0tnHw3VtMMgP7b-23">
          <mxGeometry y="90" width="250" height="30" as="geometry" />
        </mxCell>
        <mxCell id="QFdVW7fJNlGAiNWQG3LB-26" value="" style="shape=partialRectangle;overflow=hidden;connectable=0;fillColor=none;top=0;left=0;bottom=0;right=0;" vertex="1" parent="QFdVW7fJNlGAiNWQG3LB-25">
          <mxGeometry width="30" height="30" as="geometry" />
        </mxCell>
        <mxCell id="QFdVW7fJNlGAiNWQG3LB-27" value="day int" style="shape=partialRectangle;overflow=hidden;connectable=0;fillColor=none;top=0;left=0;bottom=0;right=0;align=left;spacingLeft=6;" vertex="1" parent="QFdVW7fJNlGAiNWQG3LB-25">
          <mxGeometry x="30" width="220" height="30" as="geometry" />
        </mxCell>
        <mxCell id="QFdVW7fJNlGAiNWQG3LB-22" style="shape=partialRectangle;collapsible=0;dropTarget=0;pointerEvents=0;fillColor=none;points=[[0,0.5],[1,0.5]];portConstraint=eastwest;top=0;left=0;right=0;bottom=0;" vertex="1" parent="C-vyLk0tnHw3VtMMgP7b-23">
          <mxGeometry y="120" width="250" height="30" as="geometry" />
        </mxCell>
        <mxCell id="QFdVW7fJNlGAiNWQG3LB-23" value="" style="shape=partialRectangle;overflow=hidden;connectable=0;fillColor=none;top=0;left=0;bottom=0;right=0;" vertex="1" parent="QFdVW7fJNlGAiNWQG3LB-22">
          <mxGeometry width="30" height="30" as="geometry" />
        </mxCell>
        <mxCell id="QFdVW7fJNlGAiNWQG3LB-24" value="week int" style="shape=partialRectangle;overflow=hidden;connectable=0;fillColor=none;top=0;left=0;bottom=0;right=0;align=left;spacingLeft=6;" vertex="1" parent="QFdVW7fJNlGAiNWQG3LB-22">
          <mxGeometry x="30" width="220" height="30" as="geometry" />
        </mxCell>
        <mxCell id="QFdVW7fJNlGAiNWQG3LB-19" style="shape=partialRectangle;collapsible=0;dropTarget=0;pointerEvents=0;fillColor=none;points=[[0,0.5],[1,0.5]];portConstraint=eastwest;top=0;left=0;right=0;bottom=0;" vertex="1" parent="C-vyLk0tnHw3VtMMgP7b-23">
          <mxGeometry y="150" width="250" height="30" as="geometry" />
        </mxCell>
        <mxCell id="QFdVW7fJNlGAiNWQG3LB-20" value="" style="shape=partialRectangle;overflow=hidden;connectable=0;fillColor=none;top=0;left=0;bottom=0;right=0;" vertex="1" parent="QFdVW7fJNlGAiNWQG3LB-19">
          <mxGeometry width="30" height="30" as="geometry" />
        </mxCell>
        <mxCell id="QFdVW7fJNlGAiNWQG3LB-21" value="month varchar" style="shape=partialRectangle;overflow=hidden;connectable=0;fillColor=none;top=0;left=0;bottom=0;right=0;align=left;spacingLeft=6;" vertex="1" parent="QFdVW7fJNlGAiNWQG3LB-19">
          <mxGeometry x="30" width="220" height="30" as="geometry" />
        </mxCell>
        <mxCell id="QFdVW7fJNlGAiNWQG3LB-16" style="shape=partialRectangle;collapsible=0;dropTarget=0;pointerEvents=0;fillColor=none;points=[[0,0.5],[1,0.5]];portConstraint=eastwest;top=0;left=0;right=0;bottom=0;" vertex="1" parent="C-vyLk0tnHw3VtMMgP7b-23">
          <mxGeometry y="180" width="250" height="30" as="geometry" />
        </mxCell>
        <mxCell id="QFdVW7fJNlGAiNWQG3LB-17" style="shape=partialRectangle;overflow=hidden;connectable=0;fillColor=none;top=0;left=0;bottom=0;right=0;" vertex="1" parent="QFdVW7fJNlGAiNWQG3LB-16">
          <mxGeometry width="30" height="30" as="geometry" />
        </mxCell>
        <mxCell id="QFdVW7fJNlGAiNWQG3LB-18" value="year int" style="shape=partialRectangle;overflow=hidden;connectable=0;fillColor=none;top=0;left=0;bottom=0;right=0;align=left;spacingLeft=6;" vertex="1" parent="QFdVW7fJNlGAiNWQG3LB-16">
          <mxGeometry x="30" width="220" height="30" as="geometry" />
        </mxCell>
        <mxCell id="QFdVW7fJNlGAiNWQG3LB-13" style="shape=partialRectangle;collapsible=0;dropTarget=0;pointerEvents=0;fillColor=none;points=[[0,0.5],[1,0.5]];portConstraint=eastwest;top=0;left=0;right=0;bottom=0;" vertex="1" parent="C-vyLk0tnHw3VtMMgP7b-23">
          <mxGeometry y="210" width="250" height="30" as="geometry" />
        </mxCell>
        <mxCell id="QFdVW7fJNlGAiNWQG3LB-14" style="shape=partialRectangle;overflow=hidden;connectable=0;fillColor=none;top=0;left=0;bottom=0;right=0;" vertex="1" parent="QFdVW7fJNlGAiNWQG3LB-13">
          <mxGeometry width="30" height="30" as="geometry" />
        </mxCell>
        <mxCell id="QFdVW7fJNlGAiNWQG3LB-15" value="weekday varchar" style="shape=partialRectangle;overflow=hidden;connectable=0;fillColor=none;top=0;left=0;bottom=0;right=0;align=left;spacingLeft=6;" vertex="1" parent="QFdVW7fJNlGAiNWQG3LB-13">
          <mxGeometry x="30" width="220" height="30" as="geometry" />
        </mxCell>
        <mxCell id="QFdVW7fJNlGAiNWQG3LB-28" value="songplay" style="shape=table;startSize=30;container=1;collapsible=1;childLayout=tableLayout;fixedRows=1;rowLines=0;fontStyle=1;align=center;resizeLast=1;" vertex="1" parent="1">
          <mxGeometry x="390" y="150" width="250" height="280" as="geometry" />
        </mxCell>
        <mxCell id="QFdVW7fJNlGAiNWQG3LB-29" value="" style="shape=partialRectangle;collapsible=0;dropTarget=0;pointerEvents=0;fillColor=none;points=[[0,0.5],[1,0.5]];portConstraint=eastwest;top=0;left=0;right=0;bottom=1;" vertex="1" parent="QFdVW7fJNlGAiNWQG3LB-28">
          <mxGeometry y="30" width="250" height="30" as="geometry" />
        </mxCell>
        <mxCell id="QFdVW7fJNlGAiNWQG3LB-30" value="PK" style="shape=partialRectangle;overflow=hidden;connectable=0;fillColor=none;top=0;left=0;bottom=0;right=0;fontStyle=1;" vertex="1" parent="QFdVW7fJNlGAiNWQG3LB-29">
          <mxGeometry width="30" height="30" as="geometry" />
        </mxCell>
        <mxCell id="QFdVW7fJNlGAiNWQG3LB-31" value="songplay_id int" style="shape=partialRectangle;overflow=hidden;connectable=0;fillColor=none;top=0;left=0;bottom=0;right=0;align=left;spacingLeft=6;fontStyle=5;" vertex="1" parent="QFdVW7fJNlGAiNWQG3LB-29">
          <mxGeometry x="30" width="220" height="30" as="geometry" />
        </mxCell>
        <mxCell id="QFdVW7fJNlGAiNWQG3LB-32" value="" style="shape=partialRectangle;collapsible=0;dropTarget=0;pointerEvents=0;fillColor=none;points=[[0,0.5],[1,0.5]];portConstraint=eastwest;top=0;left=0;right=0;bottom=0;" vertex="1" parent="QFdVW7fJNlGAiNWQG3LB-28">
          <mxGeometry y="60" width="250" height="30" as="geometry" />
        </mxCell>
        <mxCell id="QFdVW7fJNlGAiNWQG3LB-33" value="FK" style="shape=partialRectangle;overflow=hidden;connectable=0;fillColor=none;top=0;left=0;bottom=0;right=0;" vertex="1" parent="QFdVW7fJNlGAiNWQG3LB-32">
          <mxGeometry width="30" height="30" as="geometry" />
        </mxCell>
        <mxCell id="QFdVW7fJNlGAiNWQG3LB-34" value="start_time int" style="shape=partialRectangle;overflow=hidden;connectable=0;fillColor=none;top=0;left=0;bottom=0;right=0;align=left;spacingLeft=6;" vertex="1" parent="QFdVW7fJNlGAiNWQG3LB-32">
          <mxGeometry x="30" width="220" height="30" as="geometry" />
        </mxCell>
        <mxCell id="QFdVW7fJNlGAiNWQG3LB-35" style="shape=partialRectangle;collapsible=0;dropTarget=0;pointerEvents=0;fillColor=none;points=[[0,0.5],[1,0.5]];portConstraint=eastwest;top=0;left=0;right=0;bottom=0;" vertex="1" parent="QFdVW7fJNlGAiNWQG3LB-28">
          <mxGeometry y="90" width="250" height="30" as="geometry" />
        </mxCell>
        <mxCell id="QFdVW7fJNlGAiNWQG3LB-36" value="FK" style="shape=partialRectangle;overflow=hidden;connectable=0;fillColor=none;top=0;left=0;bottom=0;right=0;" vertex="1" parent="QFdVW7fJNlGAiNWQG3LB-35">
          <mxGeometry width="30" height="30" as="geometry" />
        </mxCell>
        <mxCell id="QFdVW7fJNlGAiNWQG3LB-37" value="user_id varchar" style="shape=partialRectangle;overflow=hidden;connectable=0;fillColor=none;top=0;left=0;bottom=0;right=0;align=left;spacingLeft=6;" vertex="1" parent="QFdVW7fJNlGAiNWQG3LB-35">
          <mxGeometry x="30" width="220" height="30" as="geometry" />
        </mxCell>
        <mxCell id="QFdVW7fJNlGAiNWQG3LB-38" style="shape=partialRectangle;collapsible=0;dropTarget=0;pointerEvents=0;fillColor=none;points=[[0,0.5],[1,0.5]];portConstraint=eastwest;top=0;left=0;right=0;bottom=0;" vertex="1" parent="QFdVW7fJNlGAiNWQG3LB-28">
          <mxGeometry y="120" width="250" height="30" as="geometry" />
        </mxCell>
        <mxCell id="QFdVW7fJNlGAiNWQG3LB-39" value="FK" style="shape=partialRectangle;overflow=hidden;connectable=0;fillColor=none;top=0;left=0;bottom=0;right=0;" vertex="1" parent="QFdVW7fJNlGAiNWQG3LB-38">
          <mxGeometry width="30" height="30" as="geometry" />
        </mxCell>
        <mxCell id="QFdVW7fJNlGAiNWQG3LB-40" value="song_id varchar" style="shape=partialRectangle;overflow=hidden;connectable=0;fillColor=none;top=0;left=0;bottom=0;right=0;align=left;spacingLeft=6;" vertex="1" parent="QFdVW7fJNlGAiNWQG3LB-38">
          <mxGeometry x="30" width="220" height="30" as="geometry" />
        </mxCell>
        <mxCell id="QFdVW7fJNlGAiNWQG3LB-41" style="shape=partialRectangle;collapsible=0;dropTarget=0;pointerEvents=0;fillColor=none;points=[[0,0.5],[1,0.5]];portConstraint=eastwest;top=0;left=0;right=0;bottom=0;" vertex="1" parent="QFdVW7fJNlGAiNWQG3LB-28">
          <mxGeometry y="150" width="250" height="30" as="geometry" />
        </mxCell>
        <mxCell id="QFdVW7fJNlGAiNWQG3LB-42" value="FK" style="shape=partialRectangle;overflow=hidden;connectable=0;fillColor=none;top=0;left=0;bottom=0;right=0;" vertex="1" parent="QFdVW7fJNlGAiNWQG3LB-41">
          <mxGeometry width="30" height="30" as="geometry" />
        </mxCell>
        <mxCell id="QFdVW7fJNlGAiNWQG3LB-43" value="artist_id varchar" style="shape=partialRectangle;overflow=hidden;connectable=0;fillColor=none;top=0;left=0;bottom=0;right=0;align=left;spacingLeft=6;" vertex="1" parent="QFdVW7fJNlGAiNWQG3LB-41">
          <mxGeometry x="30" width="220" height="30" as="geometry" />
        </mxCell>
        <mxCell id="QFdVW7fJNlGAiNWQG3LB-44" style="shape=partialRectangle;collapsible=0;dropTarget=0;pointerEvents=0;fillColor=none;points=[[0,0.5],[1,0.5]];portConstraint=eastwest;top=0;left=0;right=0;bottom=0;" vertex="1" parent="QFdVW7fJNlGAiNWQG3LB-28">
          <mxGeometry y="180" width="250" height="30" as="geometry" />
        </mxCell>
        <mxCell id="QFdVW7fJNlGAiNWQG3LB-45" style="shape=partialRectangle;overflow=hidden;connectable=0;fillColor=none;top=0;left=0;bottom=0;right=0;" vertex="1" parent="QFdVW7fJNlGAiNWQG3LB-44">
          <mxGeometry width="30" height="30" as="geometry" />
        </mxCell>
        <mxCell id="QFdVW7fJNlGAiNWQG3LB-46" value="session_id int" style="shape=partialRectangle;overflow=hidden;connectable=0;fillColor=none;top=0;left=0;bottom=0;right=0;align=left;spacingLeft=6;" vertex="1" parent="QFdVW7fJNlGAiNWQG3LB-44">
          <mxGeometry x="30" width="220" height="30" as="geometry" />
        </mxCell>
        <mxCell id="QFdVW7fJNlGAiNWQG3LB-47" style="shape=partialRectangle;collapsible=0;dropTarget=0;pointerEvents=0;fillColor=none;points=[[0,0.5],[1,0.5]];portConstraint=eastwest;top=0;left=0;right=0;bottom=0;" vertex="1" parent="QFdVW7fJNlGAiNWQG3LB-28">
          <mxGeometry y="210" width="250" height="30" as="geometry" />
        </mxCell>
        <mxCell id="QFdVW7fJNlGAiNWQG3LB-48" style="shape=partialRectangle;overflow=hidden;connectable=0;fillColor=none;top=0;left=0;bottom=0;right=0;" vertex="1" parent="QFdVW7fJNlGAiNWQG3LB-47">
          <mxGeometry width="30" height="30" as="geometry" />
        </mxCell>
        <mxCell id="QFdVW7fJNlGAiNWQG3LB-49" value="location varchar" style="shape=partialRectangle;overflow=hidden;connectable=0;fillColor=none;top=0;left=0;bottom=0;right=0;align=left;spacingLeft=6;" vertex="1" parent="QFdVW7fJNlGAiNWQG3LB-47">
          <mxGeometry x="30" width="220" height="30" as="geometry" />
        </mxCell>
        <mxCell id="QFdVW7fJNlGAiNWQG3LB-50" style="shape=partialRectangle;collapsible=0;dropTarget=0;pointerEvents=0;fillColor=none;points=[[0,0.5],[1,0.5]];portConstraint=eastwest;top=0;left=0;right=0;bottom=0;" vertex="1" parent="QFdVW7fJNlGAiNWQG3LB-28">
          <mxGeometry y="240" width="250" height="30" as="geometry" />
        </mxCell>
        <mxCell id="QFdVW7fJNlGAiNWQG3LB-51" style="shape=partialRectangle;overflow=hidden;connectable=0;fillColor=none;top=0;left=0;bottom=0;right=0;" vertex="1" parent="QFdVW7fJNlGAiNWQG3LB-50">
          <mxGeometry width="30" height="30" as="geometry" />
        </mxCell>
        <mxCell id="QFdVW7fJNlGAiNWQG3LB-52" value="user_agent varchar" style="shape=partialRectangle;overflow=hidden;connectable=0;fillColor=none;top=0;left=0;bottom=0;right=0;align=left;spacingLeft=6;" vertex="1" parent="QFdVW7fJNlGAiNWQG3LB-50">
          <mxGeometry x="30" width="220" height="30" as="geometry" />
        </mxCell>
        <mxCell id="QFdVW7fJNlGAiNWQG3LB-53" value="users" style="shape=table;startSize=30;container=1;collapsible=1;childLayout=tableLayout;fixedRows=1;rowLines=0;fontStyle=1;align=center;resizeLast=1;" vertex="1" parent="1">
          <mxGeometry x="50" y="360" width="250" height="190" as="geometry" />
        </mxCell>
        <mxCell id="QFdVW7fJNlGAiNWQG3LB-54" value="" style="shape=partialRectangle;collapsible=0;dropTarget=0;pointerEvents=0;fillColor=none;points=[[0,0.5],[1,0.5]];portConstraint=eastwest;top=0;left=0;right=0;bottom=1;" vertex="1" parent="QFdVW7fJNlGAiNWQG3LB-53">
          <mxGeometry y="30" width="250" height="30" as="geometry" />
        </mxCell>
        <mxCell id="QFdVW7fJNlGAiNWQG3LB-55" value="PK" style="shape=partialRectangle;overflow=hidden;connectable=0;fillColor=none;top=0;left=0;bottom=0;right=0;fontStyle=1;" vertex="1" parent="QFdVW7fJNlGAiNWQG3LB-54">
          <mxGeometry width="30" height="30" as="geometry" />
        </mxCell>
        <mxCell id="QFdVW7fJNlGAiNWQG3LB-56" value="user_id varchar" style="shape=partialRectangle;overflow=hidden;connectable=0;fillColor=none;top=0;left=0;bottom=0;right=0;align=left;spacingLeft=6;fontStyle=5;" vertex="1" parent="QFdVW7fJNlGAiNWQG3LB-54">
          <mxGeometry x="30" width="220" height="30" as="geometry" />
        </mxCell>
        <mxCell id="QFdVW7fJNlGAiNWQG3LB-57" value="" style="shape=partialRectangle;collapsible=0;dropTarget=0;pointerEvents=0;fillColor=none;points=[[0,0.5],[1,0.5]];portConstraint=eastwest;top=0;left=0;right=0;bottom=0;" vertex="1" parent="QFdVW7fJNlGAiNWQG3LB-53">
          <mxGeometry y="60" width="250" height="30" as="geometry" />
        </mxCell>
        <mxCell id="QFdVW7fJNlGAiNWQG3LB-58" value="" style="shape=partialRectangle;overflow=hidden;connectable=0;fillColor=none;top=0;left=0;bottom=0;right=0;" vertex="1" parent="QFdVW7fJNlGAiNWQG3LB-57">
          <mxGeometry width="30" height="30" as="geometry" />
        </mxCell>
        <mxCell id="QFdVW7fJNlGAiNWQG3LB-59" value="first_name varchar" style="shape=partialRectangle;overflow=hidden;connectable=0;fillColor=none;top=0;left=0;bottom=0;right=0;align=left;spacingLeft=6;" vertex="1" parent="QFdVW7fJNlGAiNWQG3LB-57">
          <mxGeometry x="30" width="220" height="30" as="geometry" />
        </mxCell>
        <mxCell id="QFdVW7fJNlGAiNWQG3LB-60" style="shape=partialRectangle;collapsible=0;dropTarget=0;pointerEvents=0;fillColor=none;points=[[0,0.5],[1,0.5]];portConstraint=eastwest;top=0;left=0;right=0;bottom=0;" vertex="1" parent="QFdVW7fJNlGAiNWQG3LB-53">
          <mxGeometry y="90" width="250" height="30" as="geometry" />
        </mxCell>
        <mxCell id="QFdVW7fJNlGAiNWQG3LB-61" value="" style="shape=partialRectangle;overflow=hidden;connectable=0;fillColor=none;top=0;left=0;bottom=0;right=0;" vertex="1" parent="QFdVW7fJNlGAiNWQG3LB-60">
          <mxGeometry width="30" height="30" as="geometry" />
        </mxCell>
        <mxCell id="QFdVW7fJNlGAiNWQG3LB-62" value="last_name varchar" style="shape=partialRectangle;overflow=hidden;connectable=0;fillColor=none;top=0;left=0;bottom=0;right=0;align=left;spacingLeft=6;" vertex="1" parent="QFdVW7fJNlGAiNWQG3LB-60">
          <mxGeometry x="30" width="220" height="30" as="geometry" />
        </mxCell>
        <mxCell id="QFdVW7fJNlGAiNWQG3LB-63" style="shape=partialRectangle;collapsible=0;dropTarget=0;pointerEvents=0;fillColor=none;points=[[0,0.5],[1,0.5]];portConstraint=eastwest;top=0;left=0;right=0;bottom=0;" vertex="1" parent="QFdVW7fJNlGAiNWQG3LB-53">
          <mxGeometry y="120" width="250" height="30" as="geometry" />
        </mxCell>
        <mxCell id="QFdVW7fJNlGAiNWQG3LB-64" value="" style="shape=partialRectangle;overflow=hidden;connectable=0;fillColor=none;top=0;left=0;bottom=0;right=0;" vertex="1" parent="QFdVW7fJNlGAiNWQG3LB-63">
          <mxGeometry width="30" height="30" as="geometry" />
        </mxCell>
        <mxCell id="QFdVW7fJNlGAiNWQG3LB-65" value="gender varchar" style="shape=partialRectangle;overflow=hidden;connectable=0;fillColor=none;top=0;left=0;bottom=0;right=0;align=left;spacingLeft=6;" vertex="1" parent="QFdVW7fJNlGAiNWQG3LB-63">
          <mxGeometry x="30" width="220" height="30" as="geometry" />
        </mxCell>
        <mxCell id="QFdVW7fJNlGAiNWQG3LB-66" style="shape=partialRectangle;collapsible=0;dropTarget=0;pointerEvents=0;fillColor=none;points=[[0,0.5],[1,0.5]];portConstraint=eastwest;top=0;left=0;right=0;bottom=0;" vertex="1" parent="QFdVW7fJNlGAiNWQG3LB-53">
          <mxGeometry y="150" width="250" height="30" as="geometry" />
        </mxCell>
        <mxCell id="QFdVW7fJNlGAiNWQG3LB-67" value="" style="shape=partialRectangle;overflow=hidden;connectable=0;fillColor=none;top=0;left=0;bottom=0;right=0;" vertex="1" parent="QFdVW7fJNlGAiNWQG3LB-66">
          <mxGeometry width="30" height="30" as="geometry" />
        </mxCell>
        <mxCell id="QFdVW7fJNlGAiNWQG3LB-68" value="level varchar" style="shape=partialRectangle;overflow=hidden;connectable=0;fillColor=none;top=0;left=0;bottom=0;right=0;align=left;spacingLeft=6;" vertex="1" parent="QFdVW7fJNlGAiNWQG3LB-66">
          <mxGeometry x="30" width="220" height="30" as="geometry" />
        </mxCell>
        <mxCell id="QFdVW7fJNlGAiNWQG3LB-78" value="songs" style="shape=table;startSize=30;container=1;collapsible=1;childLayout=tableLayout;fixedRows=1;rowLines=0;fontStyle=1;align=center;resizeLast=1;" vertex="1" parent="1">
          <mxGeometry x="720" y="40" width="250" height="190" as="geometry" />
        </mxCell>
        <mxCell id="QFdVW7fJNlGAiNWQG3LB-79" value="" style="shape=partialRectangle;collapsible=0;dropTarget=0;pointerEvents=0;fillColor=none;points=[[0,0.5],[1,0.5]];portConstraint=eastwest;top=0;left=0;right=0;bottom=1;" vertex="1" parent="QFdVW7fJNlGAiNWQG3LB-78">
          <mxGeometry y="30" width="250" height="30" as="geometry" />
        </mxCell>
        <mxCell id="QFdVW7fJNlGAiNWQG3LB-80" value="PK" style="shape=partialRectangle;overflow=hidden;connectable=0;fillColor=none;top=0;left=0;bottom=0;right=0;fontStyle=1;" vertex="1" parent="QFdVW7fJNlGAiNWQG3LB-79">
          <mxGeometry width="30" height="30" as="geometry" />
        </mxCell>
        <mxCell id="QFdVW7fJNlGAiNWQG3LB-81" value="song_id varchar" style="shape=partialRectangle;overflow=hidden;connectable=0;fillColor=none;top=0;left=0;bottom=0;right=0;align=left;spacingLeft=6;fontStyle=5;" vertex="1" parent="QFdVW7fJNlGAiNWQG3LB-79">
          <mxGeometry x="30" width="220" height="30" as="geometry" />
        </mxCell>
        <mxCell id="QFdVW7fJNlGAiNWQG3LB-82" value="" style="shape=partialRectangle;collapsible=0;dropTarget=0;pointerEvents=0;fillColor=none;points=[[0,0.5],[1,0.5]];portConstraint=eastwest;top=0;left=0;right=0;bottom=0;" vertex="1" parent="QFdVW7fJNlGAiNWQG3LB-78">
          <mxGeometry y="60" width="250" height="30" as="geometry" />
        </mxCell>
        <mxCell id="QFdVW7fJNlGAiNWQG3LB-83" value="" style="shape=partialRectangle;overflow=hidden;connectable=0;fillColor=none;top=0;left=0;bottom=0;right=0;" vertex="1" parent="QFdVW7fJNlGAiNWQG3LB-82">
          <mxGeometry width="30" height="30" as="geometry" />
        </mxCell>
        <mxCell id="QFdVW7fJNlGAiNWQG3LB-84" value="title varchar" style="shape=partialRectangle;overflow=hidden;connectable=0;fillColor=none;top=0;left=0;bottom=0;right=0;align=left;spacingLeft=6;" vertex="1" parent="QFdVW7fJNlGAiNWQG3LB-82">
          <mxGeometry x="30" width="220" height="30" as="geometry" />
        </mxCell>
        <mxCell id="QFdVW7fJNlGAiNWQG3LB-85" style="shape=partialRectangle;collapsible=0;dropTarget=0;pointerEvents=0;fillColor=none;points=[[0,0.5],[1,0.5]];portConstraint=eastwest;top=0;left=0;right=0;bottom=0;" vertex="1" parent="QFdVW7fJNlGAiNWQG3LB-78">
          <mxGeometry y="90" width="250" height="30" as="geometry" />
        </mxCell>
        <mxCell id="QFdVW7fJNlGAiNWQG3LB-86" value="FK" style="shape=partialRectangle;overflow=hidden;connectable=0;fillColor=none;top=0;left=0;bottom=0;right=0;" vertex="1" parent="QFdVW7fJNlGAiNWQG3LB-85">
          <mxGeometry width="30" height="30" as="geometry" />
        </mxCell>
        <mxCell id="QFdVW7fJNlGAiNWQG3LB-87" value="artist_id varchar" style="shape=partialRectangle;overflow=hidden;connectable=0;fillColor=none;top=0;left=0;bottom=0;right=0;align=left;spacingLeft=6;" vertex="1" parent="QFdVW7fJNlGAiNWQG3LB-85">
          <mxGeometry x="30" width="220" height="30" as="geometry" />
        </mxCell>
        <mxCell id="QFdVW7fJNlGAiNWQG3LB-88" style="shape=partialRectangle;collapsible=0;dropTarget=0;pointerEvents=0;fillColor=none;points=[[0,0.5],[1,0.5]];portConstraint=eastwest;top=0;left=0;right=0;bottom=0;" vertex="1" parent="QFdVW7fJNlGAiNWQG3LB-78">
          <mxGeometry y="120" width="250" height="30" as="geometry" />
        </mxCell>
        <mxCell id="QFdVW7fJNlGAiNWQG3LB-89" value="" style="shape=partialRectangle;overflow=hidden;connectable=0;fillColor=none;top=0;left=0;bottom=0;right=0;" vertex="1" parent="QFdVW7fJNlGAiNWQG3LB-88">
          <mxGeometry width="30" height="30" as="geometry" />
        </mxCell>
        <mxCell id="QFdVW7fJNlGAiNWQG3LB-90" value="year int" style="shape=partialRectangle;overflow=hidden;connectable=0;fillColor=none;top=0;left=0;bottom=0;right=0;align=left;spacingLeft=6;" vertex="1" parent="QFdVW7fJNlGAiNWQG3LB-88">
          <mxGeometry x="30" width="220" height="30" as="geometry" />
        </mxCell>
        <mxCell id="QFdVW7fJNlGAiNWQG3LB-91" style="shape=partialRectangle;collapsible=0;dropTarget=0;pointerEvents=0;fillColor=none;points=[[0,0.5],[1,0.5]];portConstraint=eastwest;top=0;left=0;right=0;bottom=0;" vertex="1" parent="QFdVW7fJNlGAiNWQG3LB-78">
          <mxGeometry y="150" width="250" height="30" as="geometry" />
        </mxCell>
        <mxCell id="QFdVW7fJNlGAiNWQG3LB-92" value="" style="shape=partialRectangle;overflow=hidden;connectable=0;fillColor=none;top=0;left=0;bottom=0;right=0;" vertex="1" parent="QFdVW7fJNlGAiNWQG3LB-91">
          <mxGeometry width="30" height="30" as="geometry" />
        </mxCell>
        <mxCell id="QFdVW7fJNlGAiNWQG3LB-93" value="duration float" style="shape=partialRectangle;overflow=hidden;connectable=0;fillColor=none;top=0;left=0;bottom=0;right=0;align=left;spacingLeft=6;" vertex="1" parent="QFdVW7fJNlGAiNWQG3LB-91">
          <mxGeometry x="30" width="220" height="30" as="geometry" />
        </mxCell>
        <mxCell id="QFdVW7fJNlGAiNWQG3LB-100" value="artists" style="shape=table;startSize=30;container=1;collapsible=1;childLayout=tableLayout;fixedRows=1;rowLines=0;fontStyle=1;align=center;resizeLast=1;" vertex="1" parent="1">
          <mxGeometry x="720" y="270" width="250" height="190" as="geometry" />
        </mxCell>
        <mxCell id="QFdVW7fJNlGAiNWQG3LB-101" value="" style="shape=partialRectangle;collapsible=0;dropTarget=0;pointerEvents=0;fillColor=none;points=[[0,0.5],[1,0.5]];portConstraint=eastwest;top=0;left=0;right=0;bottom=1;" vertex="1" parent="QFdVW7fJNlGAiNWQG3LB-100">
          <mxGeometry y="30" width="250" height="30" as="geometry" />
        </mxCell>
        <mxCell id="QFdVW7fJNlGAiNWQG3LB-102" value="PK" style="shape=partialRectangle;overflow=hidden;connectable=0;fillColor=none;top=0;left=0;bottom=0;right=0;fontStyle=1;" vertex="1" parent="QFdVW7fJNlGAiNWQG3LB-101">
          <mxGeometry width="30" height="30" as="geometry" />
        </mxCell>
        <mxCell id="QFdVW7fJNlGAiNWQG3LB-103" value="artist_id varchar" style="shape=partialRectangle;overflow=hidden;connectable=0;fillColor=none;top=0;left=0;bottom=0;right=0;align=left;spacingLeft=6;fontStyle=5;" vertex="1" parent="QFdVW7fJNlGAiNWQG3LB-101">
          <mxGeometry x="30" width="220" height="30" as="geometry" />
        </mxCell>
        <mxCell id="QFdVW7fJNlGAiNWQG3LB-104" value="" style="shape=partialRectangle;collapsible=0;dropTarget=0;pointerEvents=0;fillColor=none;points=[[0,0.5],[1,0.5]];portConstraint=eastwest;top=0;left=0;right=0;bottom=0;" vertex="1" parent="QFdVW7fJNlGAiNWQG3LB-100">
          <mxGeometry y="60" width="250" height="30" as="geometry" />
        </mxCell>
        <mxCell id="QFdVW7fJNlGAiNWQG3LB-105" value="" style="shape=partialRectangle;overflow=hidden;connectable=0;fillColor=none;top=0;left=0;bottom=0;right=0;" vertex="1" parent="QFdVW7fJNlGAiNWQG3LB-104">
          <mxGeometry width="30" height="30" as="geometry" />
        </mxCell>
        <mxCell id="QFdVW7fJNlGAiNWQG3LB-106" value="name varchar" style="shape=partialRectangle;overflow=hidden;connectable=0;fillColor=none;top=0;left=0;bottom=0;right=0;align=left;spacingLeft=6;" vertex="1" parent="QFdVW7fJNlGAiNWQG3LB-104">
          <mxGeometry x="30" width="220" height="30" as="geometry" />
        </mxCell>
        <mxCell id="QFdVW7fJNlGAiNWQG3LB-107" style="shape=partialRectangle;collapsible=0;dropTarget=0;pointerEvents=0;fillColor=none;points=[[0,0.5],[1,0.5]];portConstraint=eastwest;top=0;left=0;right=0;bottom=0;" vertex="1" parent="QFdVW7fJNlGAiNWQG3LB-100">
          <mxGeometry y="90" width="250" height="30" as="geometry" />
        </mxCell>
        <mxCell id="QFdVW7fJNlGAiNWQG3LB-108" value="" style="shape=partialRectangle;overflow=hidden;connectable=0;fillColor=none;top=0;left=0;bottom=0;right=0;" vertex="1" parent="QFdVW7fJNlGAiNWQG3LB-107">
          <mxGeometry width="30" height="30" as="geometry" />
        </mxCell>
        <mxCell id="QFdVW7fJNlGAiNWQG3LB-109" value="location varchar" style="shape=partialRectangle;overflow=hidden;connectable=0;fillColor=none;top=0;left=0;bottom=0;right=0;align=left;spacingLeft=6;" vertex="1" parent="QFdVW7fJNlGAiNWQG3LB-107">
          <mxGeometry x="30" width="220" height="30" as="geometry" />
        </mxCell>
        <mxCell id="QFdVW7fJNlGAiNWQG3LB-110" style="shape=partialRectangle;collapsible=0;dropTarget=0;pointerEvents=0;fillColor=none;points=[[0,0.5],[1,0.5]];portConstraint=eastwest;top=0;left=0;right=0;bottom=0;" vertex="1" parent="QFdVW7fJNlGAiNWQG3LB-100">
          <mxGeometry y="120" width="250" height="30" as="geometry" />
        </mxCell>
        <mxCell id="QFdVW7fJNlGAiNWQG3LB-111" value="" style="shape=partialRectangle;overflow=hidden;connectable=0;fillColor=none;top=0;left=0;bottom=0;right=0;" vertex="1" parent="QFdVW7fJNlGAiNWQG3LB-110">
          <mxGeometry width="30" height="30" as="geometry" />
        </mxCell>
        <mxCell id="QFdVW7fJNlGAiNWQG3LB-112" value="latitude float" style="shape=partialRectangle;overflow=hidden;connectable=0;fillColor=none;top=0;left=0;bottom=0;right=0;align=left;spacingLeft=6;" vertex="1" parent="QFdVW7fJNlGAiNWQG3LB-110">
          <mxGeometry x="30" width="220" height="30" as="geometry" />
        </mxCell>
        <mxCell id="QFdVW7fJNlGAiNWQG3LB-113" style="shape=partialRectangle;collapsible=0;dropTarget=0;pointerEvents=0;fillColor=none;points=[[0,0.5],[1,0.5]];portConstraint=eastwest;top=0;left=0;right=0;bottom=0;" vertex="1" parent="QFdVW7fJNlGAiNWQG3LB-100">
          <mxGeometry y="150" width="250" height="30" as="geometry" />
        </mxCell>
        <mxCell id="QFdVW7fJNlGAiNWQG3LB-114" value="" style="shape=partialRectangle;overflow=hidden;connectable=0;fillColor=none;top=0;left=0;bottom=0;right=0;" vertex="1" parent="QFdVW7fJNlGAiNWQG3LB-113">
          <mxGeometry width="30" height="30" as="geometry" />
        </mxCell>
        <mxCell id="QFdVW7fJNlGAiNWQG3LB-115" value="longitude float" style="shape=partialRectangle;overflow=hidden;connectable=0;fillColor=none;top=0;left=0;bottom=0;right=0;align=left;spacingLeft=6;" vertex="1" parent="QFdVW7fJNlGAiNWQG3LB-113">
          <mxGeometry x="30" width="220" height="30" as="geometry" />
        </mxCell>
        <mxCell id="QFdVW7fJNlGAiNWQG3LB-116" value="" style="edgeStyle=entityRelationEdgeStyle;fontSize=12;html=1;endArrow=ERoneToMany;startArrow=ERmandOne;exitX=1;exitY=0.5;exitDx=0;exitDy=0;entryX=1;entryY=0.5;entryDx=0;entryDy=0;" edge="1" parent="1" source="QFdVW7fJNlGAiNWQG3LB-101" target="QFdVW7fJNlGAiNWQG3LB-85">
          <mxGeometry width="100" height="100" relative="1" as="geometry">
            <mxPoint x="870" y="380" as="sourcePoint" />
            <mxPoint x="970" y="280" as="targetPoint" />
          </mxGeometry>
        </mxCell>
        <mxCell id="QFdVW7fJNlGAiNWQG3LB-117" value="" style="edgeStyle=entityRelationEdgeStyle;fontSize=12;html=1;endArrow=ERzeroToMany;startArrow=ERmandOne;exitX=0;exitY=0.5;exitDx=0;exitDy=0;entryX=1;entryY=0.5;entryDx=0;entryDy=0;" edge="1" parent="1" source="QFdVW7fJNlGAiNWQG3LB-101" target="QFdVW7fJNlGAiNWQG3LB-41">
          <mxGeometry width="100" height="100" relative="1" as="geometry">
            <mxPoint x="870" y="380" as="sourcePoint" />
            <mxPoint x="680" y="260" as="targetPoint" />
          </mxGeometry>
        </mxCell>
        <mxCell id="QFdVW7fJNlGAiNWQG3LB-118" value="" style="edgeStyle=entityRelationEdgeStyle;fontSize=12;html=1;endArrow=ERzeroToMany;startArrow=ERmandOne;entryX=1;entryY=0.5;entryDx=0;entryDy=0;exitX=0;exitY=0.5;exitDx=0;exitDy=0;" edge="1" parent="1" source="QFdVW7fJNlGAiNWQG3LB-79" target="QFdVW7fJNlGAiNWQG3LB-38">
          <mxGeometry width="100" height="100" relative="1" as="geometry">
            <mxPoint x="710" y="90" as="sourcePoint" />
            <mxPoint x="650" y="325" as="targetPoint" />
          </mxGeometry>
        </mxCell>
        <mxCell id="QFdVW7fJNlGAiNWQG3LB-121" value="" style="edgeStyle=entityRelationEdgeStyle;fontSize=12;html=1;endArrow=ERzeroToMany;startArrow=ERmandOne;exitX=1;exitY=0.5;exitDx=0;exitDy=0;entryX=0;entryY=0.5;entryDx=0;entryDy=0;" edge="1" parent="1" source="C-vyLk0tnHw3VtMMgP7b-24" target="QFdVW7fJNlGAiNWQG3LB-32">
          <mxGeometry width="100" height="100" relative="1" as="geometry">
            <mxPoint x="520" y="100" as="sourcePoint" />
            <mxPoint x="440" y="100" as="targetPoint" />
          </mxGeometry>
        </mxCell>
        <mxCell id="QFdVW7fJNlGAiNWQG3LB-122" value="" style="edgeStyle=entityRelationEdgeStyle;fontSize=12;html=1;endArrow=ERzeroToMany;startArrow=ERmandOne;exitX=1;exitY=0.5;exitDx=0;exitDy=0;entryX=0;entryY=0.5;entryDx=0;entryDy=0;" edge="1" parent="1" source="QFdVW7fJNlGAiNWQG3LB-54" target="QFdVW7fJNlGAiNWQG3LB-35">
          <mxGeometry width="100" height="100" relative="1" as="geometry">
            <mxPoint x="310" y="105" as="sourcePoint" />
            <mxPoint x="400" y="235" as="targetPoint" />
          </mxGeometry>
        </mxCell>
      </root>
    </mxGraphModel>
  </diagram>
</mxfile>
